<svg id="Capa_1" enable-background="new 0 0 512 512" height="512" viewBox="0 0 512 512" width="512" xmlns="http://www.w3.org/2000/svg"><g><g><path d="m455.674 504.5v-92.242h-.009c-.193-42.074-30.536-77.982-72.035-85.147l-78.798-13.605v-72.708h-97.668v72.708l-78.798 13.605c-41.499 7.165-71.842 43.074-72.035 85.147h-.009v92.242z" fill="#30569f"/></g><g><path d="m360.045 397.423 29.387-69.084c-1.911-.465-3.839-.888-5.802-1.227l-78.798-13.605v-51.445h-48.834-48.834v51.445l-78.798 13.605c-1.963.339-3.891.762-5.802 1.227l29.387 69.084h43.437l60.61 107.077 60.61-107.077z" fill="#f7e365"/></g><g><path d="m455.665 412.258c-.193-42.074-30.537-77.982-72.035-85.147l-7.645-1.32c26.997 14.845 44.851 43.441 44.999 75.672h.009v103.037h34.682v-92.242z" fill="#26447e"/></g><g><path d="m207.164 313.506c12.269 5.773 25.759 8.822 39.698 8.822h18.272c13.939 0 27.428-3.049 39.698-8.822v-72.708h-97.668z" fill="#f3d332"/></g><g><path d="m148.313 103.397-1.998 17.196c-1.334 11.484 16.809 24.175 18.764 35.57l-8.1 55.608c1.61 9.381 6.124 18.019 12.906 24.697l40.335 39.715c8.502 8.371 19.954 13.063 31.886 13.063h27.781c11.931 0 23.384-4.692 31.886-13.063l40.335-39.715c6.782-6.678 11.296-15.316 12.906-24.697l9.728-56.683c1.956-11.395 2.271-23.011.937-34.495l-1.998-17.196c-6.35-54.665-52.651-95.897-107.683-95.897-55.032 0-101.333 41.232-107.685 95.897z" fill="#3a67c1"/></g><g><path d="m365.68 120.592-1.998-17.195c-6.351-54.665-52.652-95.897-107.684-95.897-5.902 0-11.702.478-17.365 1.392 47.137 7.61 84.649 45.703 90.319 94.505l1.998 17.195c1.334 11.484 1.019 23.1-.937 34.495l-9.728 56.683c-1.61 9.381-6.124 18.019-12.906 24.697l-40.335 39.715c-7.672 7.554-17.749 12.099-28.411 12.917 1.153.089 2.311.146 3.475.146h27.781c11.931 0 23.384-4.692 31.886-13.063l40.335-39.715c6.782-6.678 11.296-15.316 12.906-24.697l9.728-56.683c1.955-11.395 2.271-23.011.936-34.495z" fill="#30569f"/></g><g><path d="m365.68 120.592-1.998-17.195c-1.657-14.26-6.037-27.603-12.577-39.541l-85.821 44.418c-5.824 3.014-12.749 3.014-18.573 0l-85.821-44.418c-6.54 11.938-10.92 25.281-12.577 39.541l-1.998 17.195c-1.334 11.484-1.019 23.1.937 34.495l9.728 56.683c1.61 9.381 6.124 18.019 12.906 24.697l12.19 12.002 67.479-55.881c3.738-3.095 9.148-3.095 12.886 0l67.479 55.881 12.19-12.002c6.782-6.678 11.296-15.316 12.906-24.697l9.728-56.683c1.955-11.395 2.271-23.011.936-34.495z" fill="#e6f7fe"/></g><g><path d="m365.68 120.592-1.998-17.195c-1.657-14.26-6.037-27.603-12.577-39.541l-28.11 14.549c2.914 7.915 4.945 16.282 5.957 24.992l1.998 17.195c1.334 11.484 1.019 23.1-.937 34.495l-9.728 56.683c-1.319 7.685-4.59 14.87-9.457 20.889l19.092 15.81 12.19-12.002c6.782-6.678 11.296-15.316 12.906-24.697l9.728-56.683c1.955-11.395 2.271-23.011.936-34.495z" fill="#d3effd"/></g><g><path d="m276.228 143 44.604-15.535c2.806-.977 5.907.224 7.323 2.837l5.523 10.195c1.263 2.332.864 5.214-.986 7.114l-25.164 25.854c-2.018 2.073-5.219 2.431-7.645.856l-24.963-16.211c-1.721-1.118-2.76-3.031-2.76-5.083v-4.303c0-2.579 1.632-4.876 4.068-5.724z" fill="#e490d0"/></g><g><path d="m235.768 143-44.604-15.535c-2.806-.977-5.907.224-7.323 2.837l-5.523 10.195c-1.263 2.332-.864 5.214.986 7.114l25.164 25.854c2.018 2.073 5.219 2.431 7.645.856l24.963-16.212c1.721-1.118 2.76-3.031 2.76-5.083v-4.303c-.001-2.578-1.633-4.875-4.068-5.723z" fill="#e490d0"/></g><g><circle cx="255.998" cy="456.012" fill="#e6f7fe" r="48.488"/></g><g><circle cx="255.998" cy="456.012" fill="#e490d0" r="16.163"/></g><g><path d="m400.417 446.345c-12.138-3.834-19.995-11.665-23.599-15.992-2.65-3.183-7.379-3.614-10.563-.963-3.183 2.65-3.614 7.38-.963 10.562 2.16 2.594 5.523 6.163 10.068 9.743l-2.354 7.604c-3.445 11.126-5.191 22.672-5.191 34.317v12.884c0 4.143 3.358 7.5 7.5 7.5s7.5-3.357 7.5-7.5v-12.884c0-10.14 1.521-20.193 4.521-29.88l1.221-3.944c2.3 1.059 4.738 2.032 7.344 2.855.751.238 1.512.351 2.261.351 3.185 0 6.14-2.045 7.15-5.243 1.246-3.95-.945-8.163-4.895-9.41z"/><path d="m148.104 424.312c-3.528-2.142-8.134-1.012-10.293 2.505-.085.14-8.76 14.01-26.232 19.528-3.95 1.247-6.141 5.46-4.893 9.41 1.01 3.198 3.965 5.243 7.15 5.243.748 0 1.509-.113 2.261-.351 2.604-.823 5.047-1.787 7.347-2.844l1.218 3.933c3 9.687 4.521 19.74 4.521 29.88v12.884c0 4.143 3.358 7.5 7.5 7.5s7.5-3.357 7.5-7.5v-12.884c0-11.646-1.747-23.191-5.191-34.317l-2.349-7.588c9.17-7.229 13.723-14.66 14.014-15.145 2.121-3.54.976-8.113-2.553-10.254z"/><path d="m463.165 411.813c-.101-11.38-2.223-22.517-6.31-33.112-1.491-3.865-5.833-5.787-9.696-4.299-3.865 1.491-5.79 5.832-4.299 9.697 3.457 8.963 5.239 18.391 5.303 28.025-.202 2.322-2.099 19.301-14.764 30.278-3.13 2.713-3.468 7.45-.755 10.58 1.483 1.711 3.571 2.588 5.671 2.588 1.741 0 3.49-.603 4.909-1.832 1.818-1.575 3.453-3.235 4.955-4.936v55.698c0 4.143 3.358 7.5 7.5 7.5s7.5-3.357 7.5-7.5c-.001 0-.005-92.539-.014-92.687z"/><path d="m436.285 357.489c2.97-2.887 3.038-7.635.151-10.605-13.95-14.355-31.769-23.748-51.533-27.164l-72.575-12.526v-30.877l35.043-34.504c7.952-7.834 13.152-17.784 15.039-28.774l9.73-56.684c2.075-12.13 2.407-24.455.987-36.632l-2-17.188c-6.789-58.455-56.284-102.535-115.129-102.535-28.456 0-55.833 10.423-77.089 29.35-21.243 18.925-34.753 44.915-38.041 73.184l-2 17.188c-1.42 12.179-1.088 24.504.988 36.636l1.57 9.16c.699 4.083 4.575 6.824 8.659 6.126 4.083-.7 6.825-4.577 6.125-8.659l-1.569-9.158c-1.834-10.72-2.127-21.609-.873-32.368l2-17.19c1.228-10.56 4.106-20.749 8.439-30.25l79.057 40.917c3.987 2.063 8.36 3.095 12.734 3.095 4.373 0 8.748-1.032 12.734-3.095l79.061-40.92c4.276 9.37 7.19 19.529 8.435 30.253l2 17.19c1.254 10.758.961 21.647-.873 32.363l-9.73 56.68c-1.352 7.876-5.08 15.009-10.78 20.624l-7.36 7.247-62.262-51.561c-6.505-5.385-15.947-5.386-22.453.001l-62.262 51.56-7.358-7.245c-5.702-5.617-9.43-12.75-10.782-20.628l-2.24-13.029c-.702-4.083-4.584-6.831-8.662-6.121-4.083.702-6.823 4.58-6.121 8.662l2.239 13.027c1.886 10.99 7.086 20.94 15.04 28.775l35.038 34.499v30.878l-72.571 12.533c-44.997 7.766-77.846 46.451-78.257 92.078-.009.151-.014 92.698-.014 92.698 0 4.143 3.358 7.5 7.5 7.5s7.5-3.357 7.5-7.5v-55.692c1.501 1.699 3.135 3.357 4.951 4.93 1.419 1.229 3.167 1.832 4.909 1.832 2.1 0 4.188-.877 5.671-2.588 2.713-3.13 2.375-7.867-.755-10.58-12.596-10.917-14.54-27.768-14.76-30.236.215-34.495 22.482-64.297 54.416-74.807l6.473 15.225c1.214 2.854 3.988 4.567 6.906 4.567.979 0 1.974-.192 2.931-.6 3.812-1.621 5.588-6.024 3.968-9.837l-5.444-12.805 75.354-13.014c3.596-.621 6.224-3.741 6.224-7.391v-24.424c8.2 4.985 17.625 7.66 27.444 7.66h27.78c9.817 0 19.24-2.674 27.44-7.658v24.427c0 3.65 2.627 6.77 6.225 7.391l75.359 13.007-23.827 56.015h-38.477c-2.703 0-5.196 1.454-6.527 3.806l-13.472 23.804c-10.21-10.77-24.634-17.508-40.611-17.508s-30.401 6.738-40.612 17.509l-13.471-23.806c-1.331-2.353-3.825-3.807-6.527-3.807h-38.48l-4.678-10.996c-1.622-3.812-6.028-5.585-9.838-3.965-3.811 1.622-5.586 6.026-3.965 9.838l6.62 15.56c1.177 2.767 3.894 4.563 6.901 4.563h39.066l14.84 26.226c-3.733 7.497-5.845 15.938-5.845 24.866 0 30.872 25.116 55.988 55.988 55.988s55.988-25.116 55.988-55.988c0-8.928-2.112-17.369-5.845-24.866l14.84-26.222h39.064c3.008 0 5.725-1.797 6.901-4.564l26.801-63.008c12.066 3.967 22.955 10.749 31.932 19.987 1.47 1.514 3.423 2.273 5.379 2.273 1.885-.002 3.77-.707 5.228-2.123zm-174.448-255.876c-3.656 1.891-8.022 1.892-11.678-.001l-78.724-40.745c4.853-7.455 10.697-14.299 17.45-20.316 18.505-16.477 42.339-25.551 67.113-25.551 35.155 0 66.473 18.074 84.579 45.86zm8.051 180.127h-27.78c-10.021 0-19.479-3.874-26.627-10.905l-22.227-21.885 61.085-50.585c.962-.797 2.358-.796 3.319-.001l61.085 50.586-22.224 21.883c-7.152 7.033-16.61 10.907-26.631 10.907zm-13.89 215.26c-22.601 0-40.988-18.388-40.988-40.988s18.387-40.987 40.988-40.987 40.988 18.387 40.988 40.987-18.388 40.988-40.988 40.988z"/><path d="m270.835 164.399 24.963 16.212c2.255 1.465 4.82 2.179 7.371 2.179 3.568 0 7.108-1.397 9.732-4.093l25.164-25.854c4.161-4.275 5.047-10.672 2.206-15.918l-5.523-10.196c-3.184-5.874-10.075-8.543-16.384-6.346l-44.604 15.534s0 .001-.001.001c-5.443 1.896-9.1 7.042-9.1 12.806v4.303c.001 4.609 2.31 8.861 6.176 11.372zm8.825-14.653 42.482-14.795 4.436 8.188-23.601 24.249-23.317-15.143z"/><path d="m208.826 182.79c2.551 0 5.116-.714 7.372-2.179l24.964-16.213c3.866-2.511 6.174-6.763 6.174-11.372v-4.303c0-5.763-3.657-10.909-9.1-12.806 0 0 0-.001-.001-.001l-44.603-15.534c-6.309-2.195-13.2.471-16.385 6.347l-5.523 10.195c-2.841 5.246-1.955 11.643 2.206 15.918l25.165 25.854c2.624 2.697 6.163 4.094 9.731 4.094zm-18.974-47.839 42.483 14.795v2.499l-23.317 15.143-23.602-24.249z"/><path d="m255.998 432.35c-13.047 0-23.663 10.615-23.663 23.662 0 13.048 10.615 23.663 23.663 23.663s23.663-10.615 23.663-23.663c-.001-13.047-10.616-23.662-23.663-23.662zm0 32.325c-4.776 0-8.663-3.887-8.663-8.663s3.886-8.662 8.663-8.662 8.663 3.886 8.663 8.662-3.887 8.663-8.663 8.663z"/></g></g></svg>